<svg width="40" height="36" viewBox="0 0 40 36" fill="none" xmlns="http://www.w3.org/2000/svg">
<path d="M40 9.25V31.75C40 33.8203 38.3203 35.5 36.25 35.5H3.75C1.67969 35.5 0 33.8203 0 31.75V9.25C0 7.17969 1.67969 5.5 3.75 5.5H10.625L11.5859 2.92969C12.1328 1.46875 13.5312 0.5 15.0937 0.5H24.8984C26.4609 0.5 27.8594 1.46875 28.4063 2.92969L29.375 5.5H36.25C38.3203 5.5 40 7.17969 40 9.25ZM29.375 20.5C29.375 15.3281 25.1719 11.125 20 11.125C14.8281 11.125 10.625 15.3281 10.625 20.5C10.625 25.6719 14.8281 29.875 20 29.875C25.1719 29.875 29.375 25.6719 29.375 20.5ZM26.875 20.5C26.875 24.2891 23.7891 27.375 20 27.375C16.2109 27.375 13.125 24.2891 13.125 20.5C13.125 16.7109 16.2109 13.625 20 13.625C23.7891 13.625 26.875 16.7109 26.875 20.5Z" fill="#8C7B80"/>
</svg>
