<svg width="30" height="38" viewBox="0 0 30 38" fill="none" xmlns="http://www.w3.org/2000/svg">
<path d="M17.375 10.0938V0H2.53125C1.54414 0 0.75 0.794141 0.75 1.78125V36.2188C0.75 37.2059 1.54414 38 2.53125 38H27.4688C28.4559 38 29.25 37.2059 29.25 36.2188V11.875H19.1562C18.1766 11.875 17.375 11.0734 17.375 10.0938ZM22.125 27.6094C22.125 28.0992 21.7242 28.5 21.2344 28.5H8.76562C8.27578 28.5 7.875 28.0992 7.875 27.6094V27.0156C7.875 26.5258 8.27578 26.125 8.76562 26.125H21.2344C21.7242 26.125 22.125 26.5258 22.125 27.0156V27.6094ZM22.125 22.8594C22.125 23.3492 21.7242 23.75 21.2344 23.75H8.76562C8.27578 23.75 7.875 23.3492 7.875 22.8594V22.2656C7.875 21.7758 8.27578 21.375 8.76562 21.375H21.2344C21.7242 21.375 22.125 21.7758 22.125 22.2656V22.8594ZM22.125 17.5156V18.1094C22.125 18.5992 21.7242 19 21.2344 19H8.76562C8.27578 19 7.875 18.5992 7.875 18.1094V17.5156C7.875 17.0258 8.27578 16.625 8.76562 16.625H21.2344C21.7242 16.625 22.125 17.0258 22.125 17.5156ZM29.25 9.04727V9.5H19.75V0H20.2027C20.6777 0 21.1305 0.185547 21.4645 0.519531L28.7305 7.79297C29.0645 8.12695 29.25 8.57969 29.25 9.04727Z" fill="#8C7B80"/>
</svg>
